HIERARCHY
ROOT joint_0
{
	OFFSET 0.000000 0.000000 0.000000
	CHANNELS 6 Xposition Yposition Zposition Zrotation Yrotation Xrotation 
	JOINT joint_1
	{
		OFFSET 8.185791 -2.713684 100.414917
		CHANNELS 3 Zrotation Yrotation Xrotation
		JOINT joint_2
		{
			OFFSET -4.376465 -1.111145 91.934082
			CHANNELS 3 Zrotation Yrotation Xrotation
			JOINT joint_3
			{
				OFFSET -6.985840 -1.054016 91.669922
				CHANNELS 3 Zrotation Yrotation Xrotation
				JOINT joint_4
				{
					OFFSET 0.150391 -4.451904 123.526001
					CHANNELS 3 Zrotation Yrotation Xrotation
					JOINT joint_5
					{
						OFFSET 19.754150 -8.123901 80.916992
						CHANNELS 3 Zrotation Yrotation Xrotation
						End Site
						{
							OFFSET 0.000000 0.000000 0.000000
						}
					}
				}
				JOINT joint_6
				{
					OFFSET -6.477539 -28.517334 68.237061
					CHANNELS 3 Zrotation Yrotation Xrotation
					JOINT joint_7
					{
						OFFSET -20.564453 -115.426208 -21.139038
						CHANNELS 3 Zrotation Yrotation Xrotation
						JOINT joint_8
						{
							OFFSET 18.981934 -19.826172 -267.898926
							CHANNELS 3 Zrotation Yrotation Xrotation
							JOINT joint_9
							{
								OFFSET 11.562744 -19.325867 -235.478027
								CHANNELS 3 Zrotation Yrotation Xrotation
								End Site
								{
									OFFSET 0.000000 0.000000 0.000000
								}
							}
						}
					}
				}
				JOINT joint_10
				{
					OFFSET 7.033936 23.504700 70.088989
					CHANNELS 3 Zrotation Yrotation Xrotation
					JOINT joint_11
					{
						OFFSET 36.629639 112.486816 -14.036987
						CHANNELS 3 Zrotation Yrotation Xrotation
						JOINT joint_12
						{
							OFFSET 41.355225 -7.048523 -266.019897
							CHANNELS 3 Zrotation Yrotation Xrotation
							JOINT joint_13
							{
								OFFSET 5.858887 29.785156 -234.603027
								CHANNELS 3 Zrotation Yrotation Xrotation
								End Site
								{
									OFFSET 0.000000 0.000000 0.000000
								}
							}
						}
					}
				}
			}
		}
	}
	JOINT joint_14
	{
		OFFSET -8.917725 -79.985535 -99.035034
		CHANNELS 3 Zrotation Yrotation Xrotation
		JOINT joint_15
		{
			OFFSET -32.739502 -31.478882 -502.570984
			CHANNELS 3 Zrotation Yrotation Xrotation
			JOINT joint_16
			{
				OFFSET 7.393066 -29.352966 -399.008011
				CHANNELS 3 Zrotation Yrotation Xrotation
				JOINT joint_17
				{
					OFFSET 178.013916 -26.060303 -71.875002
					CHANNELS 3 Zrotation Yrotation Xrotation
					End Site
					{
						OFFSET 0.000000 0.000000 0.000000
					}
				}
			}
		}
	}
	JOINT joint_18
	{
		OFFSET 1.900879 81.159851 -98.481018
		CHANNELS 3 Zrotation Yrotation Xrotation
		JOINT joint_19
		{
			OFFSET -15.120850 31.602051 -503.400024
			CHANNELS 3 Zrotation Yrotation Xrotation
			JOINT joint_20
			{
				OFFSET -16.653076 23.887695 -399.091988
				CHANNELS 3 Zrotation Yrotation Xrotation
				JOINT joint_21
				{
					OFFSET 179.618164 -1.217651 -72.592001
					CHANNELS 3 Zrotation Yrotation Xrotation
					End Site
					{
						OFFSET 0.000000 0.000000 0.000000
					}
				}
			}
		}
	}
}
MOTION
Frames: 13
Frame Time: 0.016667
-2309.219727 621.318726 1039.192993 0.607619 23.406316 1.795853 -3.458658 27.167908 6.691227 11.100468 -2.439492 -1.785930 13.171307 2.478734 0.966281 -1.959292 -4.799508 1.375641 0.000000 0.000000 0.000000 0.888955 -15.601072 -14.225994 -14.832744 1.351714 -33.857121 -0.880719 -23.013184 -6.888024 0.000000 0.000000 0.000000 6.392222 -3.570897 7.870072 -11.696759 8.773390 7.254878 -9.302676 -62.835721 -11.678052 0.000000 0.000000 0.000000 12.729355 -50.186992 -7.520272 -5.362090 47.651291 2.294290 -2.619326 -13.521587 -3.461753 0.000000 0.000000 0.000000 6.509868 -50.329045 -5.310973 -177.445930 79.644802 -165.636603 5.800832 0.551136 -12.066039 0.000000 0.000000 0.000000 
-2288.356201 619.470581 1046.863037 -0.304967 24.454096 1.472045 -3.015661 27.470944 6.347810 12.143295 -2.445813 -1.864257 12.659393 2.510565 0.965539 -1.846421 -4.827879 1.164004 0.000000 0.000000 0.000000 2.190243 -21.198481 -15.439277 -17.022307 0.577750 -34.431160 -0.959970 -28.391496 -4.165665 0.000000 0.000000 0.000000 6.434541 -4.100598 7.604619 -12.248023 9.164238 7.208181 -9.240848 -64.004402 -10.480125 0.000000 0.000000 0.000000 14.353674 -48.734568 -8.186097 -5.033950 45.165255 3.202369 -2.441440 -13.215265 -3.242140 0.000000 0.000000 0.000000 8.733803 -55.042587 -8.306716 -177.032432 77.393416 -165.573976 8.421695 -1.264633 -17.185224 0.000000 0.000000 0.000000 
-2266.558350 617.967102 1054.556030 -1.236167 25.311245 1.150724 -2.547376 27.805670 6.010186 13.067176 -2.481797 -1.908851 12.194675 2.521466 0.932712 -1.752136 -4.808272 0.927975 0.000000 0.000000 0.000000 3.506893 -26.278823 -16.558622 -18.653800 0.049756 -35.053952 -0.972341 -33.271332 -0.664206 0.000000 0.000000 0.000000 6.497635 -4.517007 7.360615 -12.821019 9.606785 7.217511 -9.166722 -65.047343 -9.465890 0.000000 0.000000 0.000000 15.680366 -47.050474 -8.583684 -4.683862 42.612809 3.903957 -2.280737 -12.740169 -3.022342 0.000000 0.000000 0.000000 10.776520 -59.168449 -11.201982 -176.173952 76.264890 -165.409402 9.853723 -2.849710 -20.482538 0.000000 0.000000 0.000000 
-2243.377686 616.790344 1061.922974 -2.224344 26.006090 0.848795 -2.099352 28.064504 5.625414 13.762356 -2.523640 -1.941573 11.906707 2.537527 0.892735 -1.793718 -4.740742 0.752145 0.000000 0.000000 0.000000 5.002300 -30.987335 -17.893887 -20.208544 0.080786 -35.491750 -0.903160 -37.558696 3.418813 0.000000 0.000000 0.000000 6.701119 -4.828988 7.048965 -13.411121 10.116372 7.350467 -9.121567 -65.857633 -8.764318 0.000000 0.000000 0.000000 16.614288 -45.287223 -8.653751 -4.310427 40.242811 4.340120 -2.133728 -12.132827 -2.811282 0.000000 0.000000 0.000000 12.499134 -62.572708 -13.752412 -174.743440 76.307338 -164.969165 10.296041 -4.371798 -21.392680 0.000000 0.000000 0.000000 
-2219.038574 616.032166 1069.265015 -2.968544 26.643607 0.728340 -1.803565 28.107428 5.246375 14.212909 -2.575053 -1.975412 11.641028 2.628917 0.896751 -1.992735 -4.617224 0.632173 0.000000 0.000000 0.000000 6.682357 -35.488484 -19.458078 -21.895086 0.483250 -35.833010 -0.712166 -41.762320 8.250561 0.000000 0.000000 0.000000 7.048108 -5.007426 6.646574 -13.992114 10.666220 7.622177 -9.083518 -66.514040 -8.317242 0.000000 0.000000 0.000000 17.111148 -43.423537 -8.609247 -3.923838 37.863819 4.572111 -1.992746 -11.391147 -2.596428 0.000000 0.000000 0.000000 13.767186 -65.453212 -16.111038 -172.879622 77.470145 -164.213184 9.521988 -5.803698 -19.897141 0.000000 0.000000 0.000000 
-2193.796387 615.072266 1075.813965 -3.541845 27.048167 0.678818 -1.618363 28.107470 4.819167 14.515694 -2.638271 -1.975531 11.518563 2.697221 0.871337 -2.287585 -4.472570 0.528728 0.000000 0.000000 0.000000 8.298528 -39.202607 -20.840018 -23.376927 1.046030 -36.016250 -0.478438 -45.308532 12.884454 0.000000 0.000000 0.000000 7.353692 -5.142665 6.279406 -14.600475 11.298618 7.976150 -9.056103 -66.976547 -8.005178 0.000000 0.000000 0.000000 17.217565 -41.503521 -8.374857 -3.527949 35.896182 4.717863 -1.767625 -10.637532 -2.370780 0.000000 0.000000 0.000000 14.548937 -67.744202 -17.875953 -171.194241 79.480810 -163.663940 7.527102 -7.291022 -15.813604 0.000000 0.000000 0.000000 
-2167.777344 613.430359 1081.107056 -3.991216 27.148486 0.640895 -1.422368 28.047538 4.333898 14.680067 -2.685481 -1.936896 11.545334 2.703815 0.797002 -2.597017 -4.342952 0.481100 0.000000 0.000000 0.000000 9.613828 -41.582411 -21.766068 -24.576251 1.722382 -35.695811 -0.373716 -48.060345 16.550942 0.000000 0.000000 0.000000 7.549157 -5.368615 6.023214 -15.293286 12.109091 8.392005 -9.028703 -67.196892 -7.791211 0.000000 0.000000 0.000000 17.006013 -39.623873 -7.955161 -3.118513 34.681594 4.881886 -1.392871 -9.973161 -2.123734 0.000000 0.000000 0.000000 14.863286 -69.414902 -18.814414 -170.295998 82.185590 -163.926462 4.975745 -8.677657 -10.885927 0.000000 0.000000 0.000000 
-2140.893066 611.346313 1085.447998 -4.180565 27.088026 0.711401 -1.168435 27.719189 3.900517 14.656913 -2.679671 -1.903581 11.530780 2.717571 0.738228 -2.797995 -4.228455 0.542278 0.000000 0.000000 0.000000 10.509175 -42.392506 -22.158894 -25.657131 2.318671 -34.770915 -0.514186 -50.611039 19.580131 0.000000 0.000000 0.000000 7.737787 -5.698149 5.803455 -16.067779 13.129548 8.895385 -8.999621 -67.196258 -7.715256 0.000000 0.000000 0.000000 16.490286 -37.819653 -7.482903 -2.719319 34.057404 5.054340 -0.920890 -9.369558 -1.861590 0.000000 0.000000 0.000000 14.697236 -70.525499 -19.148632 -170.238101 85.644350 -165.050921 2.451915 -9.704248 -6.694037 0.000000 0.000000 0.000000 
-2113.273438 609.105103 1088.543945 -4.181638 26.875096 0.769296 -0.962414 27.288185 3.560514 14.541092 -2.686151 -1.868870 11.621922 2.742394 0.678515 -2.681135 -4.140700 0.660491 0.000000 0.000000 0.000000 10.658564 -41.593650 -21.723786 -26.301677 2.370188 -33.578600 -0.924301 -52.970710 21.938219 0.000000 0.000000 0.000000 7.852140 -6.027250 5.589040 -16.872144 14.260046 9.365878 -9.022901 -67.075427 -7.555370 0.000000 0.000000 0.000000 15.755119 -36.065210 -6.873913 -2.372237 33.925194 5.189104 -0.402491 -8.898076 -1.610735 0.000000 0.000000 0.000000 14.128050 -71.095957 -18.935393 -170.848919 89.586779 -166.773796 0.412421 -10.464106 -3.882425 0.000000 0.000000 0.000000 
-2084.999512 606.854919 1090.192017 -4.012793 26.502721 0.742469 -0.814898 26.834495 3.358231 14.365022 -2.723967 -1.827690 11.870713 2.757853 0.612748 -2.252514 -4.073063 0.789163 0.000000 0.000000 0.000000 10.020129 -39.342524 -20.479438 -26.456911 1.718408 -32.341745 -1.559517 -55.165217 23.611026 0.000000 0.000000 0.000000 7.855129 -6.231621 5.416411 -17.649658 15.370355 9.690869 -9.153852 -66.877986 -7.164439 0.000000 0.000000 0.000000 14.834781 -34.334849 -6.054981 -2.116867 34.244500 5.241062 0.122812 -8.599704 -1.391889 0.000000 0.000000 0.000000 13.196483 -71.145223 -18.176388 8.114544 86.149611 11.132979 -1.103423 -11.096856 -2.221778 0.000000 0.000000 0.000000 
-2056.019043 604.491577 1090.515991 -3.620257 26.000380 0.690557 -0.586843 26.216553 3.310870 14.039581 -2.714389 -1.772146 12.150843 2.739631 0.548366 -1.811735 -3.997867 0.922364 0.000000 0.000000 0.000000 8.963474 -36.024455 -18.827099 -26.387621 0.830690 -30.976586 -2.328117 -57.319246 24.730181 0.000000 0.000000 0.000000 7.782520 -6.231637 5.369013 -18.362994 16.362002 9.895647 -9.383950 -66.563869 -6.665781 0.000000 0.000000 0.000000 13.718931 -32.648073 -5.091053 -1.954575 35.032944 5.227400 0.664391 -8.398224 -1.193218 0.000000 0.000000 0.000000 11.885783 -70.673128 -16.901172 6.859198 81.473129 8.740142 -2.222505 -11.627855 -1.323551 0.000000 0.000000 0.000000 
-2026.384155 602.148254 1089.467041 -3.135989 25.428972 0.572884 -0.271606 25.483946 3.410871 13.519922 -2.705042 -1.714840 12.497925 2.730288 0.495626 -1.562729 -3.885549 1.031002 0.000000 0.000000 0.000000 7.881380 -32.542521 -17.207716 -26.113546 0.185960 -29.597468 -3.050831 -59.184455 25.431952 0.000000 0.000000 0.000000 7.700547 -5.955152 5.376621 -18.947819 17.140423 10.080044 -9.660790 -66.210781 -6.147711 0.000000 0.000000 0.000000 12.494301 -31.048472 -4.044581 -1.822121 36.219073 5.190222 1.290086 -8.198938 -0.978590 0.000000 0.000000 0.000000 10.277778 -69.704362 -15.307058 5.641177 76.355355 6.488913 -2.986064 -12.137222 -0.953976 0.000000 0.000000 0.000000 
-1996.160034 599.856140 1087.088013 -2.681371 24.804002 0.332344 0.211587 24.703620 3.680144 12.828357 -2.726713 -1.674027 12.862337 2.733396 0.461641 -1.498208 -3.739280 1.117386 0.000000 0.000000 0.000000 6.870631 -29.155747 -15.753723 -25.571054 -0.107280 -28.187212 -3.680342 -60.611857 25.695192 0.000000 0.000000 0.000000 7.657092 -5.428351 5.366683 -19.418925 17.727377 10.301101 -9.948037 -65.858844 -5.617710 0.000000 0.000000 0.000000 11.199362 -29.527901 -2.879295 -1.682002 37.707631 5.084795 2.028898 -7.876030 -0.719083 0.000000 0.000000 0.000000 8.421593 -68.232859 -13.454716 4.511237 70.649788 4.525840 -3.545252 -12.639810 -0.919058 0.000000 0.000000 0.000000 
